<?xml version="1.0" encoding="UTF-8" standalone="no"?>
<!-- Created with Inkscape (http://www.inkscape.org/) -->
<svg
   xmlns:dc="http://purl.org/dc/elements/1.1/"
   xmlns:cc="http://creativecommons.org/ns#"
   xmlns:rdf="http://www.w3.org/1999/02/22-rdf-syntax-ns#"
   xmlns:svg="http://www.w3.org/2000/svg"
   xmlns="http://www.w3.org/2000/svg"
   xmlns:sodipodi="http://sodipodi.sourceforge.net/DTD/sodipodi-0.dtd"
   xmlns:inkscape="http://www.inkscape.org/namespaces/inkscape"
   width="40.842499"
   height="33.084999"
   id="svg4239"
   sodipodi:version="0.32"
   inkscape:version="0.46"
   version="1.0"
   sodipodi:docname="Pattex-Logo.svg"
   inkscape:output_extension="org.inkscape.output.svg.inkscape">
  <defs
     id="defs4241">
    <clipPath
       clipPathUnits="userSpaceOnUse"
       id="clipPath1529">
      <path
         d="M 0,842.04 L 595.2,842.04 L 595.2,0 L 0,0 L 0,842.04 z"
         id="path1531" />
    </clipPath>
    <clipPath
       clipPathUnits="userSpaceOnUse"
       id="clipPath1523">
      <path
         d="M -0.138,841.945 L 595.138,841.945 L 595.138,0.055 L -0.138,0.055 L -0.138,841.945 z"
         id="path1525" />
    </clipPath>
    <clipPath
       clipPathUnits="userSpaceOnUse"
       id="clipPath1541">
      <path
         d="M 387.062,275.958 L 419.549,275.958 L 419.549,249.677 L 387.062,249.677 L 387.062,275.958 z"
         id="path1543" />
    </clipPath>
    <clipPath
       clipPathUnits="userSpaceOnUse"
       id="clipPath1555">
      <path
         d="M 388.733,269.394 L 403.309,273.987 L 417.886,269.394 L 417.886,251.553 L 403.309,256.13 L 388.733,251.553 L 388.733,269.394"
         id="path1557" />
    </clipPath>
    <inkscape:perspective
       sodipodi:type="inkscape:persp3d"
       inkscape:vp_x="0 : 526.18109 : 1"
       inkscape:vp_y="0 : 1000 : 0"
       inkscape:vp_z="744.09448 : 526.18109 : 1"
       inkscape:persp3d-origin="372.04724 : 350.78739 : 1"
       id="perspective4247" />
  </defs>
  <sodipodi:namedview
     id="base"
     pagecolor="#ffffff"
     bordercolor="#666666"
     borderopacity="1.0"
     inkscape:pageopacity="0.0"
     inkscape:pageshadow="2"
     inkscape:zoom="5.2681706"
     inkscape:cx="24.545625"
     inkscape:cy="22.968124"
     inkscape:document-units="px"
     inkscape:current-layer="layer1"
     showgrid="false"
     inkscape:window-width="1024"
     inkscape:window-height="708"
     inkscape:window-x="-4"
     inkscape:window-y="-4" />
  <metadata
     id="metadata4244">
    <rdf:RDF>
      <cc:Work
         rdf:about="">
        <dc:format>image/svg+xml</dc:format>
        <dc:type
           rdf:resource="http://purl.org/dc/dcmitype/StillImage" />
      </cc:Work>
    </rdf:RDF>
  </metadata>
  <g
     inkscape:label="Ebene 1"
     inkscape:groupmode="layer"
     id="layer1"
     transform="translate(-190.64732,-404.71575)">
    <g
       transform="matrix(1.25,0,0,-1.25,-293.0633,749.78013)"
       id="g1519">
      <g
         id="g1521"
         clip-path="url(#clipPath1523)">
        <g
           id="g1527"
           clip-path="url(#clipPath1529)" />
      </g>
    </g>
    <path
       d="M 190.7642,437.68263 L 231.37295,437.68263 L 231.37295,404.83138 L 190.7642,404.83138 L 190.7642,437.68263 z"
       style="fill:#ffec00;fill-opacity:1;fill-rule:nonzero;stroke:none"
       id="path1535" />
    <g
       transform="matrix(1.25,0,0,-1.25,-293.0633,749.78013)"
       id="g1537">
      <g
         id="g1539"
         clip-path="url(#clipPath1541)">
        <path
           d="M 386.185,261.309 L 420.228,261.309 L 420.228,248.925 L 386.163,248.951 L 386.185,261.309"
           style="fill:#1a171b;fill-opacity:1;fill-rule:nonzero;stroke:none"
           id="path1545" />
      </g>
    </g>
    <path
       d="M 190.7642,404.83263 L 231.37295,404.83263 L 231.37295,437.68388 L 190.7642,437.68388 L 190.7642,404.83263 z"
       style="fill:none;stroke:#1a171b;stroke-width:0.23375002;stroke-linecap:butt;stroke-linejoin:miter;stroke-miterlimit:3.86400008;stroke-dasharray:none;stroke-opacity:1"
       id="path1547" />
    <path
       d="M 192.85295,413.03763 L 211.07295,407.29638 L 229.2942,413.03763 L 229.2942,435.33888 L 211.07295,429.61763 L 192.85295,435.33888 L 192.85295,413.03763"
       style="fill:#ffffff;fill-opacity:1;fill-rule:nonzero;stroke:none"
       id="path1549" />
    <g
       transform="matrix(1.25,0,0,-1.25,-293.0633,749.78013)"
       id="g1551">
      <g
         id="g1553"
         clip-path="url(#clipPath1555)">
        <path
           d="M 388.733,252.924 L 403.309,257.5 L 417.886,252.924 L 417.886,251.55 L 403.309,256.127 L 388.733,251.55 L 388.733,252.924"
           style="fill:#e31619;fill-opacity:1;fill-rule:nonzero;stroke:none"
           id="path1559" />
        <path
           d="M 388.733,254.335 L 403.309,258.912 L 417.886,254.335 L 417.886,253.618 L 403.309,258.194 L 388.733,253.618 L 388.733,254.335"
           style="fill:#e31619;fill-opacity:1;fill-rule:nonzero;stroke:none"
           id="path1561" />
      </g>
    </g>
    <path
       d="M 227.44045,423.12513 L 225.3017,419.79263 L 227.25295,416.75013 L 224.53795,416.75013 L 224.1742,417.63138 C 224.11295,417.78888 224.07545,417.95763 224.0117,418.12638 L 223.9867,418.12638 L 223.5242,416.75013 L 220.7217,416.75013 L 222.62295,419.84138 L 220.6217,423.12513 L 223.3617,423.12513 L 223.5367,422.79888 C 223.7367,422.40013 223.8742,422.01388 224.0492,421.61513 L 224.60045,423.12513 L 227.44045,423.12513"
       style="fill:#e31619;fill-opacity:1;fill-rule:evenodd;stroke:none"
       id="path1563" />
    <path
       d="M 196.9542,423.12513 L 196.9542,420.14263 C 199.1692,420.20263 200.6717,419.47888 200.6717,417.11263 C 200.6717,414.72138 198.9567,414.02138 196.7292,414.02138 L 194.4017,414.02138 L 194.4017,423.12513 L 196.9542,423.12513 z M 198.09295,417.07638 C 198.09295,417.75263 197.65545,418.12638 196.9542,418.09013 L 196.9542,415.99013 L 197.14295,415.97763 C 197.76795,415.97763 198.09295,416.49638 198.09295,417.07638"
       style="fill:#e31619;fill-opacity:1;fill-rule:evenodd;stroke:none"
       id="path1565" />
    <path
       d="M 203.6567,421.30138 C 203.4192,421.30138 203.2942,421.10888 203.2317,420.86763 C 203.1692,420.61388 203.1567,420.32388 203.1567,420.14263 C 203.1567,419.93763 203.1567,419.53888 203.2192,419.20138 C 203.2942,418.85138 203.4317,418.56138 203.7317,418.56138 C 204.02045,418.56138 204.14545,418.80263 204.20795,419.08013 C 204.27045,419.37013 204.25795,419.68388 204.25795,419.85263 C 204.25795,420.03388 204.25795,420.39638 204.18295,420.72263 C 204.12045,421.03638 203.9692,421.30138 203.6567,421.30138 z M 206.71045,416.75013 L 204.22045,416.75013 L 204.32045,417.72763 L 204.29545,417.75263 C 203.98295,417.12388 203.4942,416.61763 202.70545,416.61763 C 201.0167,416.61763 200.6292,418.62138 200.6292,419.87763 C 200.6292,421.12013 200.9542,423.25763 202.65545,423.25763 C 203.4567,423.25763 204.03295,422.72638 204.34545,422.05013 L 204.37045,422.07388 L 204.25795,423.12513 L 206.71045,423.12513 L 206.71045,416.75013"
       style="fill:#e31619;fill-opacity:1;fill-rule:evenodd;stroke:none"
       id="path1567" />
    <path
       d="M 210.20295,423.12513 L 210.20295,418.64513 L 211.01545,418.64513 L 211.01545,416.75013 L 210.20295,416.75013 L 210.20295,414.87888 L 207.75045,414.87888 L 207.75045,416.75013 L 207.0492,416.75013 L 207.0492,418.64513 L 207.75045,418.64513 L 207.75045,423.12513 L 210.20295,423.12513"
       style="fill:#e31619;fill-opacity:1;fill-rule:evenodd;stroke:none"
       id="path1569" />
    <path
       d="M 214.41295,423.12513 L 214.41295,418.64513 L 215.22545,418.64513 L 215.22545,416.75013 L 214.41295,416.75013 L 214.41295,414.87888 L 211.96045,414.87888 L 211.96045,416.75013 L 211.2592,416.75013 L 211.2592,418.64513 L 211.96045,418.64513 L 211.96045,423.12513 L 214.41295,423.12513"
       style="fill:#e31619;fill-opacity:1;fill-rule:evenodd;stroke:none"
       id="path1571" />
    <path
       d="M 217.7717,419.15263 C 217.7592,418.82638 217.9092,418.34388 218.32295,418.34388 C 218.76045,418.34388 218.89795,418.80263 218.91045,419.15263 L 217.7717,419.15263 z M 218.88545,420.96388 C 218.83545,421.21763 218.62295,421.41013 218.34795,421.41013 C 217.8342,421.41013 217.7717,420.80638 217.7717,420.43263 L 221.37545,420.43263 C 221.37545,419.43013 221.30045,418.48888 220.66295,417.65513 C 220.1867,417.02763 219.4492,416.61763 218.43545,416.61763 C 216.40795,416.61763 215.3192,418.23513 215.3192,420.05763 C 215.3192,421.93013 216.33295,423.25763 218.37295,423.25763 C 219.8492,423.25763 221.01295,422.43638 221.28795,420.96388 L 218.88545,420.96388"
       style="fill:#e31619;fill-opacity:1;fill-rule:evenodd;stroke:none"
       id="path1573" />
    <path
       d="M 227.4867,415.98388 C 227.4192,415.85763 227.4017,415.67638 227.3942,415.64638 C 227.3917,415.62763 227.38295,415.53388 227.3167,415.48263 C 227.3042,415.47388 227.29295,415.46638 227.2817,415.46013 C 227.33045,415.43513 227.46295,415.38388 227.46295,415.21388 C 227.46295,415.14888 227.4442,415.09388 227.40545,415.04388 C 227.35545,414.97763 227.2892,414.94013 227.12295,414.93388 C 227.09295,414.93138 227.0617,414.93138 227.0317,414.93138 L 226.65545,414.93138 L 226.65545,415.98388 L 226.90795,415.98388 L 226.90795,415.54263 L 226.9517,415.54263 C 226.9967,415.54513 227.04795,415.54013 227.0867,415.57263 C 227.1167,415.59763 227.12045,415.63388 227.13545,415.70763 C 227.15045,415.80513 227.15545,415.89138 227.1967,415.98138 L 227.4867,415.98388 z M 226.90795,415.34263 L 226.90795,415.12388 L 227.06545,415.12388 C 227.1417,415.12388 227.1792,415.14013 227.1992,415.17513 C 227.21045,415.19513 227.21295,415.22013 227.21295,415.22763 C 227.21295,415.25763 227.2017,415.28013 227.1967,415.28763 C 227.1667,415.34263 227.12045,415.34263 227.02045,415.34263 L 226.90795,415.34263 z M 227.85545,415.47138 C 227.85795,415.29263 227.80545,415.12138 227.69795,414.97763 C 227.5392,414.76388 227.30045,414.64888 227.04045,414.64888 C 226.6942,414.64888 226.4917,414.84138 226.4067,414.94013 C 226.34045,415.02138 226.2217,415.19263 226.2217,415.46388 C 226.2217,415.82763 226.43295,416.03388 226.53795,416.11763 C 226.68045,416.22513 226.8567,416.28513 227.03795,416.28513 C 227.15295,416.28513 227.4442,416.25513 227.66045,415.99763 C 227.83545,415.79263 227.85545,415.57013 227.85545,415.47138 z M 227.7817,415.46888 C 227.78045,415.78138 227.5892,416.06138 227.29045,416.16763 C 227.1792,416.20638 227.0867,416.21138 227.04045,416.21138 C 226.73795,416.21138 226.4617,416.03013 226.35045,415.74888 C 226.31295,415.66013 226.2942,415.56513 226.2942,415.46638 C 226.2942,415.12888 226.5017,414.93638 226.60045,414.86388 C 226.7767,414.73388 226.96295,414.72138 227.04045,414.72138 C 227.37545,414.72138 227.5642,414.92138 227.63795,415.02138 C 227.77045,415.20263 227.7817,415.38888 227.7817,415.46888"
       style="fill:#ffffff;fill-opacity:1;fill-rule:evenodd;stroke:none"
       id="path1575" />
  </g>
</svg>
